<svg fill="#ffffff" xmlns="http://www.w3.org/2000/svg"  viewBox="0 0 64 64" width="64px" height="64px"><path d="M 5 6 C 3.3550302 6 2 7.3550302 2 9 L 2 42.832031 A 1.0001 1.0001 0 0 0 2 43.158203 L 2 45 C 2 46.64497 3.3550302 48 5 48 L 25.611328 48 L 22.947266 56 L 18 56 A 1.0001 1.0001 0 1 0 18 58 L 23.507812 58 A 1.0001 1.0001 0 0 0 23.818359 58 L 40.175781 58 A 1.0001 1.0001 0 0 0 40.496094 58 L 46 58 A 1.0001 1.0001 0 1 0 46 56 L 41.052734 56 L 38.388672 48 L 59 48 C 60.64497 48 62 46.64497 62 45 L 62 43.167969 A 1.0001 1.0001 0 0 0 62 42.841797 L 62 9 C 62 7.3550302 60.64497 6 59 6 L 5 6 z M 5 8 L 59 8 C 59.56503 8 60 8.4349698 60 9 L 60 10 L 4 10 L 4 9 C 4 8.4349698 4.4349698 8 5 8 z M 4 12 L 60 12 L 60 42 L 54 42 A 1.0001 1.0001 0 1 0 54 44 L 60 44 L 60 45 C 60 45.56503 59.56503 46 59 46 L 37.048828 46 L 36.949219 46 L 27.160156 46 A 1.0001 1.0001 0 0 0 27.011719 45.986328 A 1.0001 1.0001 0 0 0 26.841797 46 L 5 46 C 4.4349698 46 4 45.56503 4 45 L 4 44 L 44 44 A 1.0001 1.0001 0 1 0 44 42 L 4 42 L 4 12 z M 30.732422 14 C 29.865229 14 29.087322 14.569136 28.826172 15.398438 L 28.119141 17.630859 L 26.039062 16.550781 C 25.269022 16.150837 24.318742 16.298479 23.705078 16.910156 A 1.0001 1.0001 0 0 0 23.703125 16.910156 L 21.910156 18.703125 C 21.296049 19.317232 21.150512 20.268396 21.550781 21.039062 L 22.628906 23.117188 L 20.396484 23.826172 C 19.570415 24.088305 19 24.865229 19 25.732422 L 19 28.267578 C 19 29.134218 19.568045 29.912186 20.396484 30.173828 L 22.630859 30.880859 L 21.550781 32.960938 C 21.150837 33.730978 21.298479 34.681258 21.910156 35.294922 A 1.0001 1.0001 0 0 0 21.910156 35.296875 L 23.703125 37.089844 C 24.317232 37.703951 25.268397 37.849488 26.039062 37.449219 L 28.117188 36.371094 L 28.826172 38.603516 C 29.088305 39.429585 29.865229 40 30.732422 40 L 33.267578 40 C 34.134771 40 34.912678 39.430864 35.173828 38.601562 L 35.880859 36.369141 L 37.960938 37.449219 C 38.730978 37.849163 39.681258 37.701521 40.294922 37.089844 A 1.0001 1.0001 0 0 0 40.296875 37.089844 L 42.089844 35.296875 C 42.703951 34.682768 42.849488 33.731603 42.449219 32.960938 L 41.371094 30.882812 L 43.603516 30.173828 C 44.429585 29.911695 45 29.134771 45 28.267578 L 45 25.732422 C 45 24.865782 44.431955 24.087814 43.603516 23.826172 L 43.601562 23.826172 L 41.369141 23.119141 L 42.449219 21.039062 C 42.849163 20.269022 42.701521 19.318742 42.089844 18.705078 A 1.0001 1.0001 0 0 0 42.089844 18.703125 L 40.296875 16.910156 C 39.682768 16.296049 38.731604 16.150512 37.960938 16.550781 L 35.882812 17.628906 L 35.173828 15.396484 C 34.911741 14.570415 34.134771 14 33.267578 14 L 30.732422 14 z M 30.732422 16 L 33.267578 16 L 34.246094 19.091797 A 1.0001 1.0001 0 0 0 34.818359 19.714844 L 35.160156 19.855469 A 1.0001 1.0001 0 0 0 36.003906 19.820312 L 38.880859 18.326172 A 1.0001 1.0001 0 0 0 38.882812 18.326172 L 40.673828 20.117188 A 1.0001 1.0001 0 0 0 40.673828 20.119141 L 39.179688 22.996094 A 1.0001 1.0001 0 0 0 39.144531 23.839844 L 39.285156 24.181641 A 1.0001 1.0001 0 0 0 39.908203 24.753906 L 43 25.732422 L 43 28.267578 L 39.908203 29.246094 A 1.0001 1.0001 0 0 0 39.285156 29.818359 L 39.144531 30.160156 A 1.0001 1.0001 0 0 0 39.179688 31.003906 L 40.673828 33.880859 A 1.0001 1.0001 0 0 0 40.673828 33.882812 L 38.882812 35.673828 A 1.0001 1.0001 0 0 0 38.880859 35.673828 L 36.003906 34.179688 A 1.0001 1.0001 0 0 0 35.160156 34.144531 L 34.818359 34.285156 A 1.0001 1.0001 0 0 0 34.246094 34.908203 L 33.267578 38 L 30.732422 38 L 29.753906 34.908203 A 1.0001 1.0001 0 0 0 29.181641 34.285156 L 28.839844 34.144531 A 1.0001 1.0001 0 0 0 27.996094 34.179688 L 25.119141 35.673828 A 1.0001 1.0001 0 0 0 25.117188 35.673828 L 23.326172 33.882812 A 1.0001 1.0001 0 0 0 23.326172 33.880859 L 24.820312 31.003906 A 1.0001 1.0001 0 0 0 24.855469 30.160156 L 24.714844 29.818359 A 1.0001 1.0001 0 0 0 24.091797 29.246094 L 21 28.267578 L 21 25.732422 L 24.091797 24.753906 A 1.0001 1.0001 0 0 0 24.714844 24.181641 L 24.855469 23.839844 A 1.0001 1.0001 0 0 0 24.820312 22.996094 L 23.326172 20.119141 A 1.0001 1.0001 0 0 0 23.326172 20.117188 L 25.117188 18.326172 A 1.0001 1.0001 0 0 0 25.119141 18.326172 L 27.996094 19.820312 A 1.0001 1.0001 0 0 0 28.839844 19.855469 L 29.181641 19.714844 A 1.0001 1.0001 0 0 0 29.753906 19.091797 L 30.732422 16 z M 32 22 C 30.416667 22 29.101892 22.629756 28.251953 23.585938 C 27.402014 24.542119 27 25.777778 27 27 C 27 28.222222 27.402014 29.457882 28.251953 30.414062 C 29.101892 31.370244 30.416667 32 32 32 C 33.583333 32 34.898108 31.370244 35.748047 30.414062 C 36.597986 29.457881 37 28.222222 37 27 C 37 25.777778 36.597986 24.542118 35.748047 23.585938 C 34.898108 22.629756 33.583333 22 32 22 z M 32 24 C 33.083333 24 33.768559 24.370244 34.251953 24.914062 C 34.735347 25.457881 35 26.222222 35 27 C 35 27.777778 34.735347 28.542118 34.251953 29.085938 C 33.768559 29.629756 33.083333 30 32 30 C 30.916667 30 30.231441 29.629756 29.748047 29.085938 C 29.264653 28.542119 29 27.777778 29 27 C 29 26.222222 29.264653 25.457882 29.748047 24.914062 C 30.231441 24.370244 30.916667 24 32 24 z M 8.984375 24.986328 A 1.0001 1.0001 0 0 0 8 26 L 8 28 A 1.0001 1.0001 0 1 0 10 28 L 10 26 A 1.0001 1.0001 0 0 0 8.984375 24.986328 z M 13.984375 24.986328 A 1.0001 1.0001 0 0 0 13 26 L 13 28 A 1.0001 1.0001 0 1 0 15 28 L 15 26 A 1.0001 1.0001 0 0 0 13.984375 24.986328 z M 49.984375 24.986328 A 1.0001 1.0001 0 0 0 49 26 L 49 28 A 1.0001 1.0001 0 1 0 51 28 L 51 26 A 1.0001 1.0001 0 0 0 49.984375 24.986328 z M 54.984375 24.986328 A 1.0001 1.0001 0 0 0 54 26 L 54 28 A 1.0001 1.0001 0 1 0 56 28 L 56 26 A 1.0001 1.0001 0 0 0 54.984375 24.986328 z M 48 42 A 1.0001 1.0001 0 1 0 48 44 L 50 44 A 1.0001 1.0001 0 1 0 50 42 L 48 42 z M 27.720703 48 L 36.279297 48 L 38.945312 56 L 25.054688 56 L 27.720703 48 z"/></svg>